<svg width="32" height="32" viewBox="0 0 32 32" fill="none" xmlns="http://www.w3.org/2000/svg">
<path fill-rule="evenodd" clip-rule="evenodd" d="M3.19995 5.60001C3.19995 4.96349 3.45281 4.35304 3.9029 3.90296C4.35299 3.45287 4.96344 3.20001 5.59995 3.20001H7.43675C7.9831 3.19978 8.51317 3.38597 8.93937 3.7278C9.36557 4.06963 9.66238 4.54665 9.78076 5.08001L10.9264 10.2368C11.0588 10.8338 10.9583 11.4588 10.6455 11.9843C10.3327 12.5097 9.83109 12.8959 9.24315 13.064L7.75035 13.4912C7.09435 13.6784 6.72155 14.3792 6.98235 15.0112C7.91049 17.2551 9.27203 19.2939 10.9891 21.0109C12.7061 22.7279 14.7449 24.0895 16.9888 25.0176C17.6208 25.2784 18.3216 24.9056 18.5088 24.2496L18.936 22.7568C19.1041 22.1689 19.4903 21.6673 20.0157 21.3545C20.5411 21.0417 21.1662 20.9412 21.7632 21.0736L26.92 22.2192C27.4533 22.3376 27.9303 22.6344 28.2722 23.0606C28.614 23.4868 28.8002 24.0169 28.8 24.5632V26.4C28.8 27.0365 28.5471 27.647 28.097 28.0971C27.6469 28.5472 27.0365 28.8 26.4 28.8H24C22.1616 28.8 20.3792 28.56 18.6784 28.112C15.1281 27.1693 11.8901 25.3048 9.29265 22.7073C6.69521 20.1099 4.83065 16.8719 3.88795 13.3216C3.43015 11.5848 3.1989 9.79612 3.19995 8.00001V5.60001Z" fill="#FF5084"/>
</svg>
